<?xml version="1.0" standalone="no"?>
<!DOCTYPE svg PUBLIC "-//W3C//DTD SVG 20010904//EN"
 "http://www.w3.org/TR/2001/REC-SVG-20010904/DTD/svg10.dtd">
<svg version="1.0" xmlns="http://www.w3.org/2000/svg"
 width="700.000000pt" height="700.000000pt" viewBox="0 0 700.000000 700.000000"
 preserveAspectRatio="xMidYMid meet">
<metadata>
Created by potrace 1.11, written by Peter Selinger 2001-2013
</metadata>
<g transform="translate(0.000000,700.000000) scale(0.100000,-0.100000)"
fill="#000000" stroke="none">
<path d="M3420 5909 c-214 -33 -390 -223 -399 -433 -1 -21 -3 -41 -3 -45 -4
-15 15 -110 29 -151 15 -42 64 -124 95 -160 19 -22 98 -82 133 -102 56 -31
145 -50 230 -50 46 0 89 3 94 7 6 3 21 8 33 10 53 10 149 68 203 122 160 162
185 409 59 598 -99 150 -291 232 -474 204z"/>
<path d="M2638 4755 c-2 -2 -25 -5 -53 -9 -270 -32 -501 -144 -704 -343 -53
-52 -76 -59 -149 -44 -91 19 -289 25 -383 12 -432 -61 -766 -395 -835 -833
-13 -85 -6 -245 16 -345 52 -244 123 -386 402 -803 119 -179 230 -341 246
-360 l30 -35 348 -3 c199 -1 355 2 363 7 11 7 4 24 -40 85 -157 220 -230 323
-282 398 -32 46 -85 121 -118 168 -152 215 -309 500 -334 605 -13 58 -14 191
0 236 43 150 185 268 326 272 32 1 60 -1 63 -4 8 -8 8 -32 2 -184 -6 -145 8
-249 50 -375 53 -159 107 -244 550 -868 89 -125 182 -253 208 -284 l47 -58
365 0 c289 0 364 3 358 13 -18 30 -274 396 -474 677 -251 353 -415 591 -435
630 -100 197 -55 481 102 646 175 184 434 239 684 145 118 -45 192 -126 204
-225 13 -105 14 -170 14 -1016 l1 -866 287 1 288 0 1 915 c0 503 4 935 8 960
11 62 38 111 84 154 82 78 197 116 362 121 41 1 93 -3 115 -8 22 -5 47 -10 55
-12 38 -8 127 -48 169 -77 90 -61 190 -181 220 -268 48 -135 50 -286 7 -413
-32 -95 -52 -126 -276 -437 -198 -275 -182 -252 -452 -638 -109 -156 -196
-287 -193 -292 3 -4 167 -8 365 -7 l361 2 27 35 c49 62 507 714 639 908 106
157 162 299 179 455 8 75 8 89 0 244 l-6 123 25 6 c34 8 108 -3 158 -26 102
-44 183 -137 211 -242 13 -47 15 -191 3 -238 -44 -183 -85 -253 -542 -903
-133 -188 -244 -347 -248 -353 -5 -9 85 -12 356 -13 l363 -2 25 28 c24 26 92
119 192 263 76 109 224 336 254 390 16 30 46 84 66 120 69 126 140 329 153
439 3 25 9 64 13 86 11 65 5 198 -14 298 -24 127 -122 320 -205 408 -14 14
-39 41 -56 60 -122 133 -318 247 -474 274 -19 3 -52 10 -74 15 -49 11 -309 4
-361 -9 -22 -6 -61 -11 -88 -11 -42 0 -53 5 -94 43 -26 23 -65 58 -86 77 -105
95 -336 218 -459 244 -13 3 -41 10 -63 15 -22 5 -53 13 -70 16 -54 11 -299 14
-355 5 -30 -5 -68 -12 -85 -15 -59 -9 -79 -15 -159 -41 -45 -14 -133 -49 -196
-77 -63 -28 -128 -51 -143 -52 -16 -1 -71 19 -125 46 -114 55 -281 111 -372
124 -19 2 -46 7 -60 10 -24 6 -297 14 -302 10z"/>
<path d="M1409 1602 c-77 -26 -124 -65 -164 -137 -92 -167 11 -379 200 -412
28 -5 966 -9 2085 -8 l2035 1 55 27 c67 35 115 83 142 145 62 139 -5 310 -146
374 l-51 23 -2056 1 c-1788 1 -2062 -1 -2100 -14z"/>
</g>
</svg>
